<svg width="67" height="62" viewBox="0 0 67 62" fill="none" xmlns="http://www.w3.org/2000/svg">
<path d="M22.0923 13.3287L1.43186 1.32779C0.796444 0.958697 0 1.41713 0 2.15196V35.5957C0 35.9337 0.179005 36.2464 0.470456 36.4176L8.19077 40.9516C8.82616 41.3247 9.62656 40.8666 9.62656 40.1297V18.3054C9.62656 18.0125 9.9431 17.829 10.1973 17.9745L22.1051 24.793C23.289 25.4709 24.7448 25.4646 25.9228 24.7764L37.5514 17.9828C37.8056 17.8344 38.125 18.0142 38.125 18.3086V28.975C38.125 29.6378 37.7807 30.2539 37.2157 30.6005L25.2359 37.9513C24.9534 38.1246 24.7812 38.4322 24.7812 38.7636V49.5329C24.7812 49.8599 24.9489 50.1641 25.2254 50.3387L40.9166 60.2489C42.128 61.0141 43.6662 61.0353 44.8984 60.304L64.8522 48.4603C66.0094 47.7735 66.7188 46.5275 66.7188 45.1819V24.5665C66.7188 23.8249 65.909 23.3674 65.2738 23.7501L58.9565 27.5557C57.8114 28.2455 57.1112 29.4846 57.1112 30.8214V41.1542C57.1112 41.4917 56.9327 41.8041 56.6418 41.9754L44.8397 48.9259C43.6381 49.6336 42.146 49.6287 40.949 48.9133L34.5992 45.118C33.9962 44.7575 33.977 43.8908 34.5635 43.5041L46.0378 35.9382C47.1077 35.2328 47.7516 34.0369 47.7516 32.7554V2.16164C47.7516 1.42459 46.9508 0.966453 46.3154 1.33998L25.9393 13.3186C24.7528 14.0161 23.2824 14.02 22.0923 13.3287Z" fill="#007FFF"/>
<path d="M66.7188 3.09359V9.60128C66.7188 10.9174 66.0399 12.1405 64.9229 12.8367L58.6448 16.75C58.0099 17.1457 57.1875 16.6892 57.1875 15.9411V9.12033C57.1875 7.75389 57.9188 6.49194 59.1043 5.81251L65.2917 2.26663C65.9271 1.90249 66.7188 2.36123 66.7188 3.09359Z" fill="#007FFF"/>
</svg>
